<?xml version="1.0" encoding="UTF-8"?>
<!DOCTYPE svg PUBLIC "-//W3C//DTD SVG 1.1//EN" "http://www.w3.org/Graphics/SVG/1.1/DTD/svg11.dtd">
<!-- Creator: CorelDRAW X7 -->
<svg xmlns="http://www.w3.org/2000/svg" xml:space="preserve" width="700px" height="700px" version="1.1" style="shape-rendering:geometricPrecision; text-rendering:geometricPrecision; image-rendering:optimizeQuality; fill-rule:evenodd; clip-rule:evenodd"
viewBox="0 0 700 700"
 xmlns:xlink="http://www.w3.org/1999/xlink">
 <defs>
  <style type="text/css">
   <![CDATA[
    .str0 {stroke:#727271;stroke-width:9.99922;stroke-linecap:round}
    .fil1 {fill:none}
    .fil0 {fill:#9D9E9E}
   ]]>
  </style>
 </defs>
 <g id="Слой_x0020_1">
  <metadata id="CorelCorpID_0Corel-Layer"/>
  <g id="_456179368">
   <path class="fil0 str0" d="M246 565c-43,45 -104,44 -160,49 27,-14 55,-32 47,-59 -31,36 -81,49 -104,50 115,-43 11,-287 94,-433 67,-134 191,-145 223,-140 71,-4 121,22 148,55 129,13 130,215 126,321 -10,155 -153,206 -195,214 77,-76 102,-131 113,-173 7,-29 7,-34 3,-50 -38,-35 -25,-117 -47,-130 -75,46 -138,51 -212,70 44,-30 41,-33 62,-64 -77,9 -131,127 -148,164l2 19c7,45 20,76 48,107z"/>
   <path class="fil1 str0" d="M246 565c72,86 127,109 179,57"/>
  </g>
 </g>
</svg>
